<svg width="1200" height="1200" viewBox="0 0 1200 1200" version="1.1" xmlns="http://www.w3.org/2000/svg" xmlns:xlink="http://www.w3.org/1999/xlink">
<title>Brilliant Logo</title>
<desc>Created using Figma</desc>
<g id="Canvas" transform="translate(-1670 176)">
<g id="Brilliant Logo">
<g id="Icons">
<g id="Brilliant Logo-Copy">
<g id="Layer 1">
<g id="Shape">
<use xlink:href="#path0_fill" transform="translate(1670 -176)" fill="#333333"/>
</g>
</g>
</g>
</g>
</g>
</g>
<defs>
<path id="path0_fill" fill-rule="evenodd" d="M 600 0C 269.2 0 0 269.2 0 600C 0 930.8 269.2 1200 600 1200C 930.8 1200 1200 930.8 1200 600C 1200 269.2 930.8 0 600 0ZM 1116.4 557.2C 1085.73 455.733 1034.13 371.2 974.933 301.867C 1031.07 296.267 1070 295.6 1080.67 295.6C 1119.2 356.267 1146.53 424.533 1159.87 497.733C 1151.73 517.6 1136.67 537.467 1116.4 557.2ZM 1113.33 811.867C 1081.33 763.867 1043.47 717.733 1002.8 674.4C 1037.87 654.533 1070.67 633.467 1099.07 611.733C 1112.67 672.4 1118.27 739.067 1113.33 811.867ZM 101.067 611.733C 129.333 633.6 162.267 654.533 197.2 674.4C 156.533 717.733 118.533 763.867 86.6667 811.867C 81.7333 739.2 87.3333 672.533 101.067 611.733ZM 40 497.6C 53.3333 424.4 80.6667 356.133 119.2 295.467C 129.867 295.467 168.933 296.133 224.933 301.733C 165.867 371.067 114.133 455.733 83.4667 557.2C 63.3333 537.467 48.2667 517.6 40 497.6ZM 946.4 848.267C 946.667 847.733 946.8 847.333 947.067 846.8C 966.667 801.2 980.933 754.267 990.133 706.133C 1030.53 750 1067.87 796.533 1098.13 844.533C 1041.87 847.333 991.467 848.533 946.4 848.267ZM 101.867 844.533C 132.133 796.667 169.333 750.133 209.867 706.267C 219.067 754.4 233.333 801.333 252.933 846.933C 253.2 847.467 253.467 847.867 253.6 848.4C 208.533 848.533 158.133 847.333 101.867 844.533ZM 615.333 191.467C 654.4 196.667 759.867 216.133 880.667 283.467C 801.6 296.4 707.867 318.133 615.333 355.2L 615.333 191.467ZM 584.667 355.2C 488.667 316.8 391.6 294.667 310.933 282C 445.2 207.867 559.733 192.667 584.667 190.133L 584.667 355.2ZM 558.4 377.867C 523.333 400.667 464.533 440.667 397.733 493.067C 362.667 434.933 328.133 372.933 298 310.933C 374.267 322.4 466.4 342.667 558.4 377.867ZM 584.667 397.467L 584.667 772C 548.667 723.2 481.867 629.867 414.133 519.867C 487.733 461.867 551.867 418.667 584.667 397.467ZM 563.333 794.533C 499.467 776.4 365.067 728.267 247.333 667.067C 294.133 620.133 343.333 576.933 390 539.067C 459.867 652.133 528.133 747.067 563.333 794.533ZM 584.667 1038.13C 558.933 1038.27 501.333 1036.8 432 1025.2C 506.4 958.667 556.533 900.667 584.667 864.667L 584.667 1038.13ZM 615.333 864.667C 643.467 900.667 693.6 958.667 768 1025.2C 698.667 1036.8 641.067 1038.27 615.333 1038.13L 615.333 864.667ZM 615.333 772L 615.333 397.467C 648.133 418.667 712.267 461.867 785.867 519.867C 718.133 629.867 651.333 723.2 615.333 772ZM 810 539.067C 856.667 576.933 905.867 620.133 952.667 667.067C 835.067 728.267 700.533 776.4 636.667 794.533C 671.867 747.067 740.133 652.133 810 539.067ZM 641.6 377.867C 733.6 342.667 825.733 322.533 902 311.067C 871.867 373.067 837.333 434.933 802.267 493.067C 735.333 440.533 676.667 400.667 641.6 377.867ZM 615.333 160.533L 615.333 76.2667C 660.667 95.6 774.533 150.267 882.4 249.6C 757.6 182.667 652.4 164.8 615.333 160.533ZM 584.667 159.333C 564.667 161.067 461.6 172.533 333.2 235.867C 436.267 145.333 541.6 94.6667 584.667 76.1333L 584.667 159.333ZM 373.6 512.267C 327.333 549.6 278.4 592.267 231.467 639.067C 222.133 539.2 234.933 434 270.267 323.867C 301.467 388.133 337.333 452.267 373.6 512.267ZM 281.067 834.8C 261.867 790.267 248.267 744.4 239.467 697.333C 350.267 754.667 472.933 799.6 544 820.4C 498.533 831.867 417.6 845.467 287.333 848C 285.2 843.467 282.933 839.333 281.067 834.8ZM 558.4 848.267C 528.667 885.733 475.467 946.8 396.667 1015.47C 362.533 977.067 329.467 931.467 301.867 878.267C 432.4 874.933 513.067 860.267 558.4 848.267ZM 577.733 1068.93L 584.667 1068.93L 584.667 1163.07C 552.533 1148.93 496.133 1114.27 437.2 1058C 498.4 1067.2 549.467 1068.93 577.733 1068.93ZM 615.333 1068.8L 622.267 1068.8C 650.533 1068.8 701.6 1067.2 762.8 1057.73C 703.867 1114 647.467 1148.67 615.333 1162.8L 615.333 1068.8ZM 641.6 848.267C 686.933 860.267 767.6 874.933 898.133 878.267C 870.4 931.467 837.333 977.067 803.333 1015.47C 724.533 946.8 671.333 885.733 641.6 848.267ZM 656.4 820.267C 727.467 799.467 850 754.667 960.533 697.333C 951.867 744.4 938.133 790.267 918.933 834.8C 916.933 839.333 914.8 843.467 912.8 847.867C 783.2 845.333 702.133 831.6 656.4 820.267ZM 968.4 638.933C 921.467 592.267 872.533 549.6 826.267 512.133C 862.533 452.133 898.4 388 929.6 323.733C 965.067 434 977.733 539.2 968.4 638.933ZM 863.2 95.3333C 899.2 114.133 932.933 136.667 964 162.533C 955.067 188.933 944.667 215.867 932.933 243.2C 913.733 194.8 890.533 145.467 863.2 95.3333ZM 887.333 213.067C 770 110.133 650.133 56.9333 615.333 42.9333L 615.333 30.9333C 686 32.8 753.6 47.6 815.6 73.0667C 843.2 120.533 867.067 167.2 887.333 213.067ZM 584.667 43.0667C 550 57.0667 430 110.267 312.667 213.2C 332.933 167.333 356.8 120.667 384.267 73.2C 446.4 47.7333 513.867 32.9333 584.667 31.0667L 584.667 43.0667ZM 266.933 243.2C 255.333 215.867 244.933 188.933 235.867 162.667C 266.8 136.8 300.667 114.4 336.533 95.4667C 309.333 145.467 286.267 194.8 266.933 243.2ZM 233.6 339.867C 202.933 444.8 192 545.6 200.933 641.733C 166.8 622 135.467 601.333 109.2 580C 135.467 485.6 180.667 406.133 233.6 339.867ZM 244.667 879.067C 252.667 879.067 260.4 879.067 268 878.933C 291.867 927.467 319.867 970.133 349.467 1007.2C 265.333 984.267 176 944.4 109.6 875.6C 158.933 878 204 879.067 244.667 879.067ZM 393.867 1058.13C 439.733 1105.73 485.733 1140.67 523.467 1164.13C 456.667 1155.07 393.467 1134.53 336 1104.27C 356.533 1088.67 375.867 1073.2 393.867 1058.13ZM 806 1058.13C 824.133 1073.2 843.467 1088.67 864 1104.27C 806.533 1134.53 743.333 1155.07 676.533 1164.13C 714.133 1140.67 760.267 1105.73 806 1058.13ZM 932 878.933C 939.6 879.067 947.333 879.067 955.333 879.067C 996 879.067 1041.07 878 1090.4 875.6C 1023.87 944.4 934.667 984.267 850.533 1007.2C 880.133 970.133 908.133 927.467 932 878.933ZM 999.067 641.6C 1008 545.333 997.067 444.4 966.267 339.333C 1019.2 405.6 1064.53 485.2 1090.8 579.867C 1064.67 601.2 1033.2 621.867 999.067 641.6ZM 1060.13 265.333C 1037.6 266.133 1000.27 268.133 953.2 273.333C 966.533 243.333 978.4 213.733 988.8 184.667C 1015.07 209.2 1038.93 236.267 1060.13 265.333ZM 211.2 184.667C 221.467 213.733 233.467 243.467 246.8 273.333C 199.867 268 162.4 266 139.867 265.333C 161.067 236.133 184.933 209.2 211.2 184.667ZM 33.2 545.867C 44.4 560.8 58.5333 575.467 74.8 589.867C 61.7333 642.933 54.1333 700.133 54.2667 762.133C 38.9333 710.667 30.6667 656.267 30.6667 600C 30.6667 581.733 31.6 563.733 33.2 545.867ZM 153.6 952.933C 219.2 998.667 294.133 1026.53 363.733 1043.33C 345.867 1058 326.8 1072.93 306.8 1087.87C 248 1052.4 196.133 1006.53 153.6 952.933ZM 893.2 1087.87C 873.2 1072.93 854.133 1058 836.267 1043.33C 905.867 1026.4 980.8 998.533 1046.4 952.8C 1003.87 1006.53 952 1052.4 893.2 1087.87ZM 1145.73 762.133C 1145.87 700.133 1138.4 642.933 1125.2 589.867C 1141.47 575.467 1155.47 560.667 1166.8 545.867C 1168.53 563.733 1169.47 581.733 1169.47 600C 1169.33 656.4 1161.07 710.8 1145.73 762.133Z"/>
</defs>
</svg>
